<?xml version="1.0" encoding="UTF-8" standalone="no"?>
<!DOCTYPE svg PUBLIC "-//W3C//DTD SVG 1.1//EN"
 "http://www.w3.org/Graphics/SVG/1.1/DTD/svg11.dtd">
<!-- Generated by graphviz version 2.40.1 (20161225.0304)
 -->
<!-- Title: godep Pages: 1 -->
<svg width="2253pt" height="796pt"
 viewBox="0.00 0.00 2252.77 796.00" xmlns="http://www.w3.org/2000/svg" xmlns:xlink="http://www.w3.org/1999/xlink">
<g id="graph0" class="graph" transform="scale(1 1) rotate(0) translate(4 792)">
<title>godep</title>
<polygon fill="#ffffff" stroke="transparent" points="-4,4 -4,-792 2248.7725,-792 2248.7725,4 -4,4"/>
<!-- bar -->
<g id="node1" class="node">
<title>bar</title>
<g id="a_node1"><a xlink:href="https://godoc.org/bar" xlink:title="bar" target="_blank">
<path fill="#afeeee" stroke="#afeeee" d="M1365.1455,-600C1365.1455,-600 1330.6133,-600 1330.6133,-600 1324.6133,-600 1318.6133,-594 1318.6133,-588 1318.6133,-588 1318.6133,-576 1318.6133,-576 1318.6133,-570 1324.6133,-564 1330.6133,-564 1330.6133,-564 1365.1455,-564 1365.1455,-564 1371.1455,-564 1377.1455,-570 1377.1455,-576 1377.1455,-576 1377.1455,-588 1377.1455,-588 1377.1455,-594 1371.1455,-600 1365.1455,-600"/>
<text text-anchor="middle" x="1347.8794" y="-577.8" font-family="Times,serif" font-size="14.00" fill="#000000">bar</text>
</a>
</g>
</g>
<!-- bar/ggg -->
<g id="node2" class="node">
<title>bar/ggg</title>
<g id="a_node2"><a xlink:href="https://godoc.org/bar/ggg" xlink:title="bar/ggg" target="_blank">
<path fill="#afeeee" stroke="#afeeee" d="M756.6385,-506C756.6385,-506 701.1202,-506 701.1202,-506 695.1202,-506 689.1202,-500 689.1202,-494 689.1202,-494 689.1202,-482 689.1202,-482 689.1202,-476 695.1202,-470 701.1202,-470 701.1202,-470 756.6385,-470 756.6385,-470 762.6385,-470 768.6385,-476 768.6385,-482 768.6385,-482 768.6385,-494 768.6385,-494 768.6385,-500 762.6385,-506 756.6385,-506"/>
<text text-anchor="middle" x="728.8794" y="-483.8" font-family="Times,serif" font-size="14.00" fill="#000000">bar/ggg</text>
</a>
</g>
</g>
<!-- bar&#45;&gt;bar/ggg -->
<g id="edge1" class="edge">
<title>bar&#45;&gt;bar/ggg</title>
<path fill="none" stroke="#000000" d="M1318.4917,-588C1252.8775,-588 1100.1752,-588 1100.1752,-588 1100.1752,-588 1100.1752,-494 1100.1752,-494 1100.1752,-494 773.9673,-494 773.9673,-494"/>
<polygon fill="#000000" stroke="#000000" points="773.9674,-492.2501 768.9673,-494 773.9673,-495.7501 773.9674,-492.2501"/>
</g>
<!-- bar/fff -->
<g id="node3" class="node">
<title>bar/fff</title>
<g id="a_node3"><a xlink:href="https://godoc.org/bar/fff" xlink:title="bar/fff" target="_blank">
<path fill="#afeeee" stroke="#afeeee" d="M1425.4761,-506C1425.4761,-506 1346.2827,-506 1346.2827,-506 1340.2827,-506 1334.2827,-500 1334.2827,-494 1334.2827,-494 1334.2827,-482 1334.2827,-482 1334.2827,-476 1340.2827,-470 1346.2827,-470 1346.2827,-470 1425.4761,-470 1425.4761,-470 1431.4761,-470 1437.4761,-476 1437.4761,-482 1437.4761,-482 1437.4761,-494 1437.4761,-494 1437.4761,-500 1431.4761,-506 1425.4761,-506"/>
<text text-anchor="middle" x="1385.8794" y="-483.8" font-family="Times,serif" font-size="14.00" fill="#000000">bar/fff</text>
</a>
</g>
</g>
<!-- bar&#45;&gt;bar/fff -->
<g id="edge2" class="edge">
<title>bar&#45;&gt;bar/fff</title>
<path fill="none" stroke="#000000" d="M1355.7966,-563.8759C1355.7966,-563.8759 1355.7966,-511.0685 1355.7966,-511.0685"/>
<polygon fill="#000000" stroke="#000000" points="1357.5467,-511.0685 1355.7966,-506.0685 1354.0467,-511.0685 1357.5467,-511.0685"/>
</g>
<!-- foo/eee -->
<g id="node4" class="node">
<title>foo/eee</title>
<g id="a_node4"><a xlink:href="https://godoc.org/foo/eee" xlink:title="foo/eee" target="_blank">
<path fill="#afeeee" stroke="#afeeee" d="M1293.1453,-506C1293.1453,-506 1216.6135,-506 1216.6135,-506 1210.6135,-506 1204.6135,-500 1204.6135,-494 1204.6135,-494 1204.6135,-482 1204.6135,-482 1204.6135,-476 1210.6135,-470 1216.6135,-470 1216.6135,-470 1293.1453,-470 1293.1453,-470 1299.1453,-470 1305.1453,-476 1305.1453,-482 1305.1453,-482 1305.1453,-494 1305.1453,-494 1305.1453,-500 1299.1453,-506 1293.1453,-506"/>
<text text-anchor="middle" x="1254.8794" y="-483.8" font-family="Times,serif" font-size="14.00" fill="#000000">foo/eee</text>
</a>
</g>
</g>
<!-- bar&#45;&gt;foo/eee -->
<g id="edge3" class="edge">
<title>bar&#45;&gt;foo/eee</title>
<path fill="none" stroke="#000000" d="M1323.7747,-563.8759C1323.7747,-536.5605 1323.7747,-488 1323.7747,-488 1323.7747,-488 1310.3121,-488 1310.3121,-488"/>
<polygon fill="#000000" stroke="#000000" points="1310.3121,-486.2501 1305.3121,-488 1310.312,-489.7501 1310.3121,-486.2501"/>
</g>
<!-- pkg/jjj -->
<g id="node5" class="node">
<title>pkg/jjj</title>
<g id="a_node5"><a xlink:href="https://godoc.org/pkg/jjj" xlink:title="pkg/jjj" target="_blank">
<path fill="#afeeee" stroke="#afeeee" d="M1061.7691,-130C1061.7691,-130 1009.9897,-130 1009.9897,-130 1003.9897,-130 997.9897,-124 997.9897,-118 997.9897,-118 997.9897,-106 997.9897,-106 997.9897,-100 1003.9897,-94 1009.9897,-94 1009.9897,-94 1061.7691,-94 1061.7691,-94 1067.7691,-94 1073.7691,-100 1073.7691,-106 1073.7691,-106 1073.7691,-118 1073.7691,-118 1073.7691,-124 1067.7691,-130 1061.7691,-130"/>
<text text-anchor="middle" x="1035.8794" y="-107.8" font-family="Times,serif" font-size="14.00" fill="#000000">pkg/jjj</text>
</a>
</g>
</g>
<!-- bar&#45;&gt;pkg/jjj -->
<g id="edge4" class="edge">
<title>bar&#45;&gt;pkg/jjj</title>
<path fill="none" stroke="#000000" d="M1329.0529,-563.8455C1329.0529,-476.5331 1329.0529,-104 1329.0529,-104 1329.0529,-104 1078.9062,-104 1078.9062,-104"/>
<polygon fill="#000000" stroke="#000000" points="1078.9062,-102.2501 1073.9062,-104 1078.9061,-105.7501 1078.9062,-102.2501"/>
</g>
<!-- bar/ggg&#45;&gt;pkg/jjj -->
<g id="edge10" class="edge">
<title>bar/ggg&#45;&gt;pkg/jjj</title>
<path fill="none" stroke="#000000" d="M741.7976,-469.7569C741.7976,-394.8699 741.7976,-115 741.7976,-115 741.7976,-115 992.7348,-115 992.7348,-115"/>
<polygon fill="#000000" stroke="#000000" points="992.7349,-116.7501 997.7348,-115 992.7348,-113.2501 992.7349,-116.7501"/>
</g>
<!-- bar/gggpb -->
<g id="node6" class="node">
<title>bar/gggpb</title>
<g id="a_node6"><a xlink:href="https://godoc.org/bar/gggpb" xlink:title="bar/gggpb" target="_blank">
<path fill="#afeeee" stroke="#afeeee" d="M81.6385,-130C81.6385,-130 12.1203,-130 12.1203,-130 6.1203,-130 .1203,-124 .1203,-118 .1203,-118 .1203,-106 .1203,-106 .1203,-100 6.1203,-94 12.1203,-94 12.1203,-94 81.6385,-94 81.6385,-94 87.6385,-94 93.6385,-100 93.6385,-106 93.6385,-106 93.6385,-118 93.6385,-118 93.6385,-124 87.6385,-130 81.6385,-130"/>
<text text-anchor="middle" x="46.8794" y="-107.8" font-family="Times,serif" font-size="14.00" fill="#000000">bar/gggpb</text>
</a>
</g>
</g>
<!-- bar/ggg&#45;&gt;bar/gggpb -->
<g id="edge5" class="edge">
<title>bar/ggg&#45;&gt;bar/gggpb</title>
<path fill="none" stroke="#000000" d="M689.0142,-498C543.1405,-498 46.8794,-498 46.8794,-498 46.8794,-498 46.8794,-135.0999 46.8794,-135.0999"/>
<polygon fill="#000000" stroke="#000000" points="48.6295,-135.0998 46.8794,-130.0999 45.1295,-135.0999 48.6295,-135.0998"/>
</g>
<!-- bar/aaa -->
<g id="node7" class="node">
<title>bar/aaa</title>
<g id="a_node7"><a xlink:href="https://godoc.org/bar/aaa" xlink:title="bar/aaa" target="_blank">
<path fill="#afeeee" stroke="#afeeee" d="M720.7418,-412C720.7418,-412 641.017,-412 641.017,-412 635.017,-412 629.017,-406 629.017,-400 629.017,-400 629.017,-388 629.017,-388 629.017,-382 635.017,-376 641.017,-376 641.017,-376 720.7418,-376 720.7418,-376 726.7418,-376 732.7418,-382 732.7418,-388 732.7418,-388 732.7418,-400 732.7418,-400 732.7418,-406 726.7418,-412 720.7418,-412"/>
<text text-anchor="middle" x="680.8794" y="-389.8" font-family="Times,serif" font-size="14.00" fill="#000000">bar/aaa</text>
</a>
</g>
</g>
<!-- bar/ggg&#45;&gt;bar/aaa -->
<g id="edge6" class="edge">
<title>bar/ggg&#45;&gt;bar/aaa</title>
<path fill="none" stroke="#000000" d="M710.9053,-469.8759C710.9053,-469.8759 710.9053,-417.0685 710.9053,-417.0685"/>
<polygon fill="#000000" stroke="#000000" points="712.6554,-417.0685 710.9053,-412.0685 709.1554,-417.0685 712.6554,-417.0685"/>
</g>
<!-- bar/nnn -->
<g id="node8" class="node">
<title>bar/nnn</title>
<g id="a_node8"><a xlink:href="https://godoc.org/bar/nnn" xlink:title="bar/nnn" target="_blank">
<path fill="#afeeee" stroke="#afeeee" d="M528.7043,-412C528.7043,-412 471.0545,-412 471.0545,-412 465.0545,-412 459.0545,-406 459.0545,-400 459.0545,-400 459.0545,-388 459.0545,-388 459.0545,-382 465.0545,-376 471.0545,-376 471.0545,-376 528.7043,-376 528.7043,-376 534.7043,-376 540.7043,-382 540.7043,-388 540.7043,-388 540.7043,-400 540.7043,-400 540.7043,-406 534.7043,-412 528.7043,-412"/>
<text text-anchor="middle" x="499.8794" y="-389.8" font-family="Times,serif" font-size="14.00" fill="#000000">bar/nnn</text>
</a>
</g>
</g>
<!-- bar/ggg&#45;&gt;bar/nnn -->
<g id="edge7" class="edge">
<title>bar/ggg&#45;&gt;bar/nnn</title>
<path fill="none" stroke="#000000" d="M688.9906,-477C623.3806,-477 499.8794,-477 499.8794,-477 499.8794,-477 499.8794,-417.0098 499.8794,-417.0098"/>
<polygon fill="#000000" stroke="#000000" points="501.6295,-417.0097 499.8794,-412.0098 498.1295,-417.0098 501.6295,-417.0097"/>
</g>
<!-- foo/foopb -->
<g id="node9" class="node">
<title>foo/foopb</title>
<g id="a_node9"><a xlink:href="https://godoc.org/foo/foopb" xlink:title="foo/foopb" target="_blank">
<path fill="#afeeee" stroke="#afeeee" d="M1927.8284,-224C1927.8284,-224 1817.9304,-224 1817.9304,-224 1811.9304,-224 1805.9304,-218 1805.9304,-212 1805.9304,-212 1805.9304,-200 1805.9304,-200 1805.9304,-194 1811.9304,-188 1817.9304,-188 1817.9304,-188 1927.8284,-188 1927.8284,-188 1933.8284,-188 1939.8284,-194 1939.8284,-200 1939.8284,-200 1939.8284,-212 1939.8284,-212 1939.8284,-218 1933.8284,-224 1927.8284,-224"/>
<text text-anchor="middle" x="1872.8794" y="-201.8" font-family="Times,serif" font-size="14.00" fill="#000000">foo/foopb</text>
</a>
</g>
</g>
<!-- bar/ggg&#45;&gt;foo/foopb -->
<g id="edge8" class="edge">
<title>bar/ggg&#45;&gt;foo/foopb</title>
<path fill="none" stroke="#000000" d="M750.7847,-469.9565C750.7847,-408.7764 750.7847,-213 750.7847,-213 750.7847,-213 1801.0476,-213 1801.0476,-213"/>
<polygon fill="#000000" stroke="#000000" points="1801.0477,-214.7501 1806.0476,-213 1801.0476,-211.2501 1801.0477,-214.7501"/>
</g>
<!-- pkg/iii -->
<g id="node10" class="node">
<title>pkg/iii</title>
<g id="a_node10"><a xlink:href="https://godoc.org/pkg/iii" xlink:title="pkg/iii" target="_blank">
<path fill="#afeeee" stroke="#afeeee" d="M358.1522,-318C358.1522,-318 295.6066,-318 295.6066,-318 289.6066,-318 283.6066,-312 283.6066,-306 283.6066,-306 283.6066,-294 283.6066,-294 283.6066,-288 289.6066,-282 295.6066,-282 295.6066,-282 358.1522,-282 358.1522,-282 364.1522,-282 370.1522,-288 370.1522,-294 370.1522,-294 370.1522,-306 370.1522,-306 370.1522,-312 364.1522,-318 358.1522,-318"/>
<text text-anchor="middle" x="326.8794" y="-295.8" font-family="Times,serif" font-size="14.00" fill="#000000">pkg/iii</text>
</a>
</g>
</g>
<!-- bar/ggg&#45;&gt;pkg/iii -->
<g id="edge9" class="edge">
<title>bar/ggg&#45;&gt;pkg/iii</title>
<path fill="none" stroke="#000000" d="M688.8644,-491C587.1832,-491 326.8794,-491 326.8794,-491 326.8794,-491 326.8794,-323.3139 326.8794,-323.3139"/>
<polygon fill="#000000" stroke="#000000" points="328.6295,-323.3138 326.8794,-318.3139 325.1295,-323.3139 328.6295,-323.3138"/>
</g>
<!-- pkg/fff -->
<g id="node11" class="node">
<title>pkg/fff</title>
<g id="a_node11"><a xlink:href="https://godoc.org/pkg/fff" xlink:title="pkg/fff" target="_blank">
<path fill="#afeeee" stroke="#afeeee" d="M398.7111,-224C398.7111,-224 341.0477,-224 341.0477,-224 335.0477,-224 329.0477,-218 329.0477,-212 329.0477,-212 329.0477,-200 329.0477,-200 329.0477,-194 335.0477,-188 341.0477,-188 341.0477,-188 398.7111,-188 398.7111,-188 404.7111,-188 410.7111,-194 410.7111,-200 410.7111,-200 410.7111,-212 410.7111,-212 410.7111,-218 404.7111,-224 398.7111,-224"/>
<text text-anchor="middle" x="369.8794" y="-201.8" font-family="Times,serif" font-size="14.00" fill="#000000">pkg/fff</text>
</a>
</g>
</g>
<!-- bar/ggg&#45;&gt;pkg/fff -->
<g id="edge11" class="edge">
<title>bar/ggg&#45;&gt;pkg/fff</title>
<path fill="none" stroke="#000000" d="M688.8575,-484C601.7019,-484 402.4891,-484 402.4891,-484 402.4891,-484 402.4891,-229.2404 402.4891,-229.2404"/>
<polygon fill="#000000" stroke="#000000" points="404.2392,-229.2403 402.4891,-224.2404 400.7392,-229.2404 404.2392,-229.2403"/>
</g>
<!-- pkg/ddd -->
<g id="node12" class="node">
<title>pkg/ddd</title>
<g id="a_node12"><a xlink:href="https://godoc.org/pkg/ddd" xlink:title="pkg/ddd" target="_blank">
<path fill="#afeeee" stroke="#afeeee" d="M1254.0353,-412C1254.0353,-412 1187.7235,-412 1187.7235,-412 1181.7235,-412 1175.7235,-406 1175.7235,-400 1175.7235,-400 1175.7235,-388 1175.7235,-388 1175.7235,-382 1181.7235,-376 1187.7235,-376 1187.7235,-376 1254.0353,-376 1254.0353,-376 1260.0353,-376 1266.0353,-382 1266.0353,-388 1266.0353,-388 1266.0353,-400 1266.0353,-400 1266.0353,-406 1260.0353,-412 1254.0353,-412"/>
<text text-anchor="middle" x="1220.8794" y="-389.8" font-family="Times,serif" font-size="14.00" fill="#000000">pkg/ddd</text>
</a>
</g>
</g>
<!-- bar/ggg&#45;&gt;pkg/ddd -->
<g id="edge12" class="edge">
<title>bar/ggg&#45;&gt;pkg/ddd</title>
<path fill="none" stroke="#000000" d="M768.9749,-482C880.3255,-482 1185.2,-482 1185.2,-482 1185.2,-482 1185.2,-417.2337 1185.2,-417.2337"/>
<polygon fill="#000000" stroke="#000000" points="1186.9501,-417.2336 1185.2,-412.2337 1183.4501,-417.2337 1186.9501,-417.2336"/>
</g>
<!-- pkg/nnns -->
<g id="node13" class="node">
<title>pkg/nnns</title>
<g id="a_node13"><a xlink:href="https://godoc.org/pkg/nnns" xlink:title="pkg/nnns" target="_blank">
<path fill="#afeeee" stroke="#afeeee" d="M1805.3862,-318C1805.3862,-318 1764.3726,-318 1764.3726,-318 1758.3726,-318 1752.3726,-312 1752.3726,-306 1752.3726,-306 1752.3726,-294 1752.3726,-294 1752.3726,-288 1758.3726,-282 1764.3726,-282 1764.3726,-282 1805.3862,-282 1805.3862,-282 1811.3862,-282 1817.3862,-288 1817.3862,-294 1817.3862,-294 1817.3862,-306 1817.3862,-306 1817.3862,-312 1811.3862,-318 1805.3862,-318"/>
<text text-anchor="middle" x="1784.8794" y="-295.8" font-family="Times,serif" font-size="14.00" fill="#000000">pkg/nnns</text>
</a>
</g>
</g>
<!-- bar/ggg&#45;&gt;pkg/nnns -->
<g id="edge13" class="edge">
<title>bar/ggg&#45;&gt;pkg/nnns</title>
<path fill="none" stroke="#000000" d="M759.7717,-469.8903C759.7717,-460.103 759.7717,-450 759.7717,-450 759.7717,-450 1778.3787,-450 1778.3787,-450 1778.3787,-450 1778.3787,-323.0935 1778.3787,-323.0935"/>
<polygon fill="#000000" stroke="#000000" points="1780.1288,-323.0935 1778.3787,-318.0935 1776.6288,-323.0935 1780.1288,-323.0935"/>
</g>
<!-- bar/fff&#45;&gt;pkg/jjj -->
<g id="edge19" class="edge">
<title>bar/fff&#45;&gt;pkg/jjj</title>
<path fill="none" stroke="#000000" d="M1411.6536,-469.7595C1411.6536,-392.8527 1411.6536,-99 1411.6536,-99 1411.6536,-99 1078.9786,-99 1078.9786,-99"/>
<polygon fill="#000000" stroke="#000000" points="1078.9786,-97.2501 1073.9786,-99 1078.9785,-100.7501 1078.9786,-97.2501"/>
</g>
<!-- pkg/zzz -->
<g id="node16" class="node">
<title>pkg/zzz</title>
<g id="a_node16"><a xlink:href="https://godoc.org/pkg/zzz" xlink:title="pkg/zzz" target="_blank">
<path fill="#afeeee" stroke="#afeeee" d="M1195.2623,-318C1195.2623,-318 1150.4965,-318 1150.4965,-318 1144.4965,-318 1138.4965,-312 1138.4965,-306 1138.4965,-306 1138.4965,-294 1138.4965,-294 1138.4965,-288 1144.4965,-282 1150.4965,-282 1150.4965,-282 1195.2623,-282 1195.2623,-282 1201.2623,-282 1207.2623,-288 1207.2623,-294 1207.2623,-294 1207.2623,-306 1207.2623,-306 1207.2623,-312 1201.2623,-318 1195.2623,-318"/>
<text text-anchor="middle" x="1172.8794" y="-295.8" font-family="Times,serif" font-size="14.00" fill="#000000">pkg/zzz</text>
</a>
</g>
</g>
<!-- bar/fff&#45;&gt;pkg/zzz -->
<g id="edge21" class="edge">
<title>bar/fff&#45;&gt;pkg/zzz</title>
<path fill="none" stroke="#000000" d="M1385.8794,-469.9833C1385.8794,-424.2015 1385.8794,-307 1385.8794,-307 1385.8794,-307 1212.5756,-307 1212.5756,-307"/>
<polygon fill="#000000" stroke="#000000" points="1212.5756,-305.2501 1207.5756,-307 1212.5755,-308.7501 1212.5756,-305.2501"/>
</g>
<!-- pkg/ccc -->
<g id="node17" class="node">
<title>pkg/ccc</title>
<g id="a_node17"><a xlink:href="https://godoc.org/pkg/ccc" xlink:title="pkg/ccc" target="_blank">
<path fill="#afeeee" stroke="#afeeee" d="M1075.4624,-412C1075.4624,-412 1010.2963,-412 1010.2963,-412 1004.2963,-412 998.2963,-406 998.2963,-400 998.2963,-400 998.2963,-388 998.2963,-388 998.2963,-382 1004.2963,-376 1010.2963,-376 1010.2963,-376 1075.4624,-376 1075.4624,-376 1081.4624,-376 1087.4624,-382 1087.4624,-388 1087.4624,-388 1087.4624,-400 1087.4624,-400 1087.4624,-406 1081.4624,-412 1075.4624,-412"/>
<text text-anchor="middle" x="1042.8794" y="-389.8" font-family="Times,serif" font-size="14.00" fill="#000000">pkg/ccc</text>
</a>
</g>
</g>
<!-- bar/fff&#45;&gt;pkg/ccc -->
<g id="edge20" class="edge">
<title>bar/fff&#45;&gt;pkg/ccc</title>
<path fill="none" stroke="#000000" d="M1360.1052,-469.9648C1360.1052,-453.2656 1360.1052,-431 1360.1052,-431 1360.1052,-431 1082.8019,-431 1082.8019,-431 1082.8019,-431 1082.8019,-417.0664 1082.8019,-417.0664"/>
<polygon fill="#000000" stroke="#000000" points="1084.552,-417.0664 1082.8019,-412.0664 1081.052,-417.0665 1084.552,-417.0664"/>
</g>
<!-- foo/eee&#45;&gt;pkg/jjj -->
<g id="edge32" class="edge">
<title>foo/eee&#45;&gt;pkg/jjj</title>
<path fill="none" stroke="#000000" d="M1279.2254,-469.975C1279.2254,-394.6557 1279.2254,-109 1279.2254,-109 1279.2254,-109 1078.9022,-109 1078.9022,-109"/>
<polygon fill="#000000" stroke="#000000" points="1078.9022,-107.2501 1073.9022,-109 1078.9022,-110.7501 1078.9022,-107.2501"/>
</g>
<!-- foo/eee&#45;&gt;foo/foopb -->
<g id="edge31" class="edge">
<title>foo/eee&#45;&gt;foo/foopb</title>
<path fill="none" stroke="#000000" d="M1292.2438,-469.9996C1292.2438,-409.9107 1292.2438,-220 1292.2438,-220 1292.2438,-220 1800.9897,-220 1800.9897,-220"/>
<polygon fill="#000000" stroke="#000000" points="1800.9898,-221.7501 1805.9897,-220 1800.9897,-218.2501 1800.9898,-221.7501"/>
</g>
<!-- foo/eee&#45;&gt;pkg/ddd -->
<g id="edge33" class="edge">
<title>foo/eee&#45;&gt;pkg/ddd</title>
<path fill="none" stroke="#000000" d="M1235.3518,-469.8759C1235.3518,-469.8759 1235.3518,-417.0685 1235.3518,-417.0685"/>
<polygon fill="#000000" stroke="#000000" points="1237.1019,-417.0685 1235.3518,-412.0685 1233.6019,-417.0685 1237.1019,-417.0685"/>
</g>
<!-- pkg/iii/iiipb -->
<g id="node14" class="node">
<title>pkg/iii/iiipb</title>
<g id="a_node14"><a xlink:href="https://godoc.org/pkg/iii/iiipb" xlink:title="pkg/iii/iiipb" target="_blank">
<path fill="#afeeee" stroke="#afeeee" d="M154.925,-36C154.925,-36 28.8338,-36 28.8338,-36 22.8338,-36 16.8338,-30 16.8338,-24 16.8338,-24 16.8338,-12 16.8338,-12 16.8338,-6 22.8338,0 28.8338,0 28.8338,0 154.925,0 154.925,0 160.925,0 166.925,-6 166.925,-12 166.925,-12 166.925,-24 166.925,-24 166.925,-30 160.925,-36 154.925,-36"/>
<text text-anchor="middle" x="91.8794" y="-13.8" font-family="Times,serif" font-size="14.00" fill="#000000">pkg/iii/iiipb</text>
</a>
</g>
</g>
<!-- bar/gggpb&#45;&gt;pkg/iii/iiipb -->
<g id="edge14" class="edge">
<title>bar/gggpb&#45;&gt;pkg/iii/iiipb</title>
<path fill="none" stroke="#000000" d="M55.1829,-93.8759C55.1829,-93.8759 55.1829,-41.0685 55.1829,-41.0685"/>
<polygon fill="#000000" stroke="#000000" points="56.933,-41.0685 55.1829,-36.0685 53.433,-41.0685 56.933,-41.0685"/>
</g>
<!-- bar/aaa&#45;&gt;pkg/jjj -->
<g id="edge16" class="edge">
<title>bar/aaa&#45;&gt;pkg/jjj</title>
<path fill="none" stroke="#000000" d="M709.3691,-375.6743C709.3691,-312.5511 709.3691,-108 709.3691,-108 709.3691,-108 992.7855,-108 992.7855,-108"/>
<polygon fill="#000000" stroke="#000000" points="992.7855,-109.7501 997.7855,-108 992.7855,-106.2501 992.7855,-109.7501"/>
</g>
<!-- bar/aaa&#45;&gt;pkg/fff -->
<g id="edge17" class="edge">
<title>bar/aaa&#45;&gt;pkg/fff</title>
<path fill="none" stroke="#000000" d="M697.6484,-375.9246C697.6484,-329.3738 697.6484,-209 697.6484,-209 697.6484,-209 415.7288,-209 415.7288,-209"/>
<polygon fill="#000000" stroke="#000000" points="415.7289,-207.2501 410.7288,-209 415.7288,-210.7501 415.7289,-207.2501"/>
</g>
<!-- bar/nnn/mmm -->
<g id="node15" class="node">
<title>bar/nnn/mmm</title>
<g id="a_node15"><a xlink:href="https://godoc.org/bar/nnn/mmm" xlink:title="bar/nnn/mmm" target="_blank">
<path fill="#afeeee" stroke="#afeeee" d="M673.9761,-318C673.9761,-318 587.7827,-318 587.7827,-318 581.7827,-318 575.7827,-312 575.7827,-306 575.7827,-306 575.7827,-294 575.7827,-294 575.7827,-288 581.7827,-282 587.7827,-282 587.7827,-282 673.9761,-282 673.9761,-282 679.9761,-282 685.9761,-288 685.9761,-294 685.9761,-294 685.9761,-306 685.9761,-306 685.9761,-312 679.9761,-318 673.9761,-318"/>
<text text-anchor="middle" x="630.8794" y="-295.8" font-family="Times,serif" font-size="14.00" fill="#000000">bar/nnn/mmm</text>
</a>
</g>
</g>
<!-- bar/aaa&#45;&gt;bar/nnn/mmm -->
<g id="edge15" class="edge">
<title>bar/aaa&#45;&gt;bar/nnn/mmm</title>
<path fill="none" stroke="#000000" d="M657.438,-375.8759C657.438,-375.8759 657.438,-323.0685 657.438,-323.0685"/>
<polygon fill="#000000" stroke="#000000" points="659.1881,-323.0685 657.438,-318.0685 655.6881,-323.0685 659.1881,-323.0685"/>
</g>
<!-- bar/aaa&#45;&gt;pkg/zzz -->
<g id="edge18" class="edge">
<title>bar/aaa&#45;&gt;pkg/zzz</title>
<path fill="none" stroke="#000000" d="M721.0898,-375.6585C721.0898,-346.7893 721.0898,-294 721.0898,-294 721.0898,-294 1133.1784,-294 1133.1784,-294"/>
<polygon fill="#000000" stroke="#000000" points="1133.1784,-295.7501 1138.1784,-294 1133.1784,-292.2501 1133.1784,-295.7501"/>
</g>
<!-- pkg/iii&#45;&gt;pkg/fff -->
<g id="edge58" class="edge">
<title>pkg/iii&#45;&gt;pkg/fff</title>
<path fill="none" stroke="#000000" d="M349.7397,-281.8759C349.7397,-281.8759 349.7397,-229.0685 349.7397,-229.0685"/>
<polygon fill="#000000" stroke="#000000" points="351.4898,-229.0685 349.7397,-224.0685 347.9898,-229.0685 351.4898,-229.0685"/>
</g>
<!-- pkg/iii&#45;&gt;pkg/iii/iiipb -->
<g id="edge57" class="edge">
<title>pkg/iii&#45;&gt;pkg/iii/iiipb</title>
<path fill="none" stroke="#000000" d="M306.3535,-281.9306C306.3535,-219.6903 306.3535,-18 306.3535,-18 306.3535,-18 172.1934,-18 172.1934,-18"/>
<polygon fill="#000000" stroke="#000000" points="172.1934,-16.2501 167.1934,-18 172.1933,-19.7501 172.1934,-16.2501"/>
</g>
<!-- pkg/fff&#45;&gt;pkg/jjj -->
<g id="edge63" class="edge">
<title>pkg/fff&#45;&gt;pkg/jjj</title>
<path fill="none" stroke="#000000" d="M410.7663,-191C553.8598,-191 1023.5,-191 1023.5,-191 1023.5,-191 1023.5,-135.3228 1023.5,-135.3228"/>
<polygon fill="#000000" stroke="#000000" points="1025.2501,-135.3227 1023.5,-130.3228 1021.7501,-135.3228 1025.2501,-135.3227"/>
</g>
<!-- pkg/fff&#45;&gt;bar/gggpb -->
<g id="edge62" class="edge">
<title>pkg/fff&#45;&gt;bar/gggpb</title>
<path fill="none" stroke="#000000" d="M369.8794,-187.7104C369.8794,-157.6272 369.8794,-101 369.8794,-101 369.8794,-101 98.8464,-101 98.8464,-101"/>
<polygon fill="#000000" stroke="#000000" points="98.8464,-99.2501 93.8464,-101 98.8463,-102.7501 98.8464,-99.2501"/>
</g>
<!-- pkg/ddd&#45;&gt;pkg/jjj -->
<g id="edge64" class="edge">
<title>pkg/ddd&#45;&gt;pkg/jjj</title>
<path fill="none" stroke="#000000" d="M1226.9495,-375.6284C1226.9495,-313.3359 1226.9495,-114 1226.9495,-114 1226.9495,-114 1079.0861,-114 1079.0861,-114"/>
<polygon fill="#000000" stroke="#000000" points="1079.0861,-112.2501 1074.0861,-114 1079.086,-115.7501 1079.0861,-112.2501"/>
</g>
<!-- pkg/ddd&#45;&gt;pkg/nnns -->
<g id="edge65" class="edge">
<title>pkg/ddd&#45;&gt;pkg/nnns</title>
<path fill="none" stroke="#000000" d="M1246.5783,-375.8489C1246.5783,-345.3213 1246.5783,-287 1246.5783,-287 1246.5783,-287 1747.0166,-287 1747.0166,-287"/>
<polygon fill="#000000" stroke="#000000" points="1747.0166,-288.7501 1752.0166,-287 1747.0165,-285.2501 1747.0166,-288.7501"/>
</g>
<!-- pkg/ddd&#45;&gt;pkg/zzz -->
<g id="edge66" class="edge">
<title>pkg/ddd&#45;&gt;pkg/zzz</title>
<path fill="none" stroke="#000000" d="M1191.4363,-375.8759C1191.4363,-375.8759 1191.4363,-323.0685 1191.4363,-323.0685"/>
<polygon fill="#000000" stroke="#000000" points="1193.1864,-323.0685 1191.4363,-318.0685 1189.6864,-323.0685 1193.1864,-323.0685"/>
</g>
<!-- pkg/nnns&#45;&gt;foo/foopb -->
<g id="edge67" class="edge">
<title>pkg/nnns&#45;&gt;foo/foopb</title>
<path fill="none" stroke="#000000" d="M1811.769,-281.8759C1811.769,-281.8759 1811.769,-229.0685 1811.769,-229.0685"/>
<polygon fill="#000000" stroke="#000000" points="1813.5191,-229.0685 1811.769,-224.0685 1810.0191,-229.0685 1813.5191,-229.0685"/>
</g>
<!-- pkg/zzz&#45;&gt;pkg/jjj -->
<g id="edge69" class="edge">
<title>pkg/zzz&#45;&gt;pkg/jjj</title>
<path fill="none" stroke="#000000" d="M1190.1001,-281.9833C1190.1001,-236.2015 1190.1001,-119 1190.1001,-119 1190.1001,-119 1079.0014,-119 1079.0014,-119"/>
<polygon fill="#000000" stroke="#000000" points="1079.0014,-117.2501 1074.0014,-119 1079.0013,-120.7501 1079.0014,-117.2501"/>
</g>
<!-- pkg/zzz&#45;&gt;pkg/fff -->
<g id="edge70" class="edge">
<title>pkg/zzz&#45;&gt;pkg/fff</title>
<path fill="none" stroke="#000000" d="M1172.8794,-281.8759C1172.8794,-254.5605 1172.8794,-206 1172.8794,-206 1172.8794,-206 415.8043,-206 415.8043,-206"/>
<polygon fill="#000000" stroke="#000000" points="415.8043,-204.2501 410.8043,-206 415.8042,-207.7501 415.8043,-204.2501"/>
</g>
<!-- foo/nnns -->
<g id="node21" class="node">
<title>foo/nnns</title>
<g id="a_node21"><a xlink:href="https://godoc.org/foo/nnns" xlink:title="foo/nnns" target="_blank">
<path fill="#afeeee" stroke="#afeeee" d="M2232.6658,-224C2232.6658,-224 2163.093,-224 2163.093,-224 2157.093,-224 2151.093,-218 2151.093,-212 2151.093,-212 2151.093,-200 2151.093,-200 2151.093,-194 2157.093,-188 2163.093,-188 2163.093,-188 2232.6658,-188 2232.6658,-188 2238.6658,-188 2244.6658,-194 2244.6658,-200 2244.6658,-200 2244.6658,-212 2244.6658,-212 2244.6658,-218 2238.6658,-224 2232.6658,-224"/>
<text text-anchor="middle" x="2197.8794" y="-201.8" font-family="Times,serif" font-size="14.00" fill="#000000">foo/nnns</text>
</a>
</g>
</g>
<!-- pkg/zzz&#45;&gt;foo/nnns -->
<g id="edge68" class="edge">
<title>pkg/zzz&#45;&gt;foo/nnns</title>
<path fill="none" stroke="#000000" d="M1155.6587,-281.963C1155.6587,-268.7087 1155.6587,-253 1155.6587,-253 1155.6587,-253 2174.4329,-253 2174.4329,-253 2174.4329,-253 2174.4329,-229.037 2174.4329,-229.037"/>
<polygon fill="#000000" stroke="#000000" points="2176.183,-229.037 2174.4329,-224.037 2172.683,-229.037 2176.183,-229.037"/>
</g>
<!-- pkg/ccc&#45;&gt;pkg/jjj -->
<g id="edge60" class="edge">
<title>pkg/ccc&#45;&gt;pkg/jjj</title>
<path fill="none" stroke="#000000" d="M1048.6621,-375.9306C1048.6621,-375.9306 1048.6621,-135.2838 1048.6621,-135.2838"/>
<polygon fill="#000000" stroke="#000000" points="1050.4122,-135.2838 1048.6621,-130.2838 1046.9122,-135.2839 1050.4122,-135.2838"/>
</g>
<!-- pkg/ccc&#45;&gt;pkg/zzz -->
<g id="edge61" class="edge">
<title>pkg/ccc&#45;&gt;pkg/zzz</title>
<path fill="none" stroke="#000000" d="M1080.6226,-375.7663C1080.6226,-349.9906 1080.6226,-306 1080.6226,-306 1080.6226,-306 1133.2639,-306 1133.2639,-306"/>
<polygon fill="#000000" stroke="#000000" points="1133.2639,-307.7501 1138.2639,-306 1133.2638,-304.2501 1133.2639,-307.7501"/>
</g>
<!-- foo -->
<g id="node18" class="node">
<title>foo</title>
<g id="a_node18"><a xlink:href="https://godoc.org/foo" xlink:title="foo" target="_blank">
<path fill="#afeeee" stroke="#afeeee" d="M1141.6591,-788C1141.6591,-788 1100.0997,-788 1100.0997,-788 1094.0997,-788 1088.0997,-782 1088.0997,-776 1088.0997,-776 1088.0997,-764 1088.0997,-764 1088.0997,-758 1094.0997,-752 1100.0997,-752 1100.0997,-752 1141.6591,-752 1141.6591,-752 1147.6591,-752 1153.6591,-758 1153.6591,-764 1153.6591,-764 1153.6591,-776 1153.6591,-776 1153.6591,-782 1147.6591,-788 1141.6591,-788"/>
<text text-anchor="middle" x="1120.8794" y="-765.8" font-family="Times,serif" font-size="14.00" fill="#000000">foo</text>
</a>
</g>
</g>
<!-- foo&#45;&gt;foo/eee -->
<g id="edge22" class="edge">
<title>foo&#45;&gt;foo/eee</title>
<path fill="none" stroke="#000000" d="M1153.6595,-758C1193.33,-758 1254.8794,-758 1254.8794,-758 1254.8794,-758 1254.8794,-511.1347 1254.8794,-511.1347"/>
<polygon fill="#000000" stroke="#000000" points="1256.6295,-511.1347 1254.8794,-506.1347 1253.1295,-511.1347 1256.6295,-511.1347"/>
</g>
<!-- foo&#45;&gt;pkg/jjj -->
<g id="edge28" class="edge">
<title>foo&#45;&gt;pkg/jjj</title>
<path fill="none" stroke="#000000" d="M1087.9955,-761C1035.6674,-761 939.2932,-761 939.2932,-761 939.2932,-761 939.2932,-122 939.2932,-122 939.2932,-122 992.9832,-122 992.9832,-122"/>
<polygon fill="#000000" stroke="#000000" points="992.9832,-123.7501 997.9832,-122 992.9832,-120.2501 992.9832,-123.7501"/>
</g>
<!-- foo&#45;&gt;foo/foopb -->
<g id="edge23" class="edge">
<title>foo&#45;&gt;foo/foopb</title>
<path fill="none" stroke="#000000" d="M1154.0755,-776C1300.5793,-776 1882.0518,-776 1882.0518,-776 1882.0518,-776 1882.0518,-229.0004 1882.0518,-229.0004"/>
<polygon fill="#000000" stroke="#000000" points="1883.8019,-229.0004 1882.0518,-224.0004 1880.3019,-229.0004 1883.8019,-229.0004"/>
</g>
<!-- foo&#45;&gt;pkg/fff -->
<g id="edge29" class="edge">
<title>foo&#45;&gt;pkg/fff</title>
<path fill="none" stroke="#000000" d="M1088.0145,-779C944.3072,-779 378.3215,-779 378.3215,-779 378.3215,-779 378.3215,-229.0951 378.3215,-229.0951"/>
<polygon fill="#000000" stroke="#000000" points="380.0714,-229.0952 378.3215,-224.0951 376.5714,-229.0951 380.0714,-229.0952"/>
</g>
<!-- foo&#45;&gt;pkg/zzz -->
<g id="edge30" class="edge">
<title>foo&#45;&gt;pkg/zzz</title>
<path fill="none" stroke="#000000" d="M1153.7135,-764C1208.3232,-764 1311.8794,-764 1311.8794,-764 1311.8794,-764 1311.8794,-312 1311.8794,-312 1311.8794,-312 1212.5964,-312 1212.5964,-312"/>
<polygon fill="#000000" stroke="#000000" points="1212.5964,-310.2501 1207.5964,-312 1212.5964,-313.7501 1212.5964,-310.2501"/>
</g>
<!-- foo/hhh -->
<g id="node19" class="node">
<title>foo/hhh</title>
<g id="a_node19"><a xlink:href="https://godoc.org/foo/hhh" xlink:title="foo/hhh" target="_blank">
<path fill="#afeeee" stroke="#afeeee" d="M1160.7486,-694C1160.7486,-694 1081.0102,-694 1081.0102,-694 1075.0102,-694 1069.0102,-688 1069.0102,-682 1069.0102,-682 1069.0102,-670 1069.0102,-670 1069.0102,-664 1075.0102,-658 1081.0102,-658 1081.0102,-658 1160.7486,-658 1160.7486,-658 1166.7486,-658 1172.7486,-664 1172.7486,-670 1172.7486,-670 1172.7486,-682 1172.7486,-682 1172.7486,-688 1166.7486,-694 1160.7486,-694"/>
<text text-anchor="middle" x="1120.8794" y="-671.8" font-family="Times,serif" font-size="14.00" fill="#000000">foo/hhh</text>
</a>
</g>
</g>
<!-- foo&#45;&gt;foo/hhh -->
<g id="edge24" class="edge">
<title>foo&#45;&gt;foo/hhh</title>
<path fill="none" stroke="#000000" d="M1120.8794,-751.8759C1120.8794,-751.8759 1120.8794,-699.0685 1120.8794,-699.0685"/>
<polygon fill="#000000" stroke="#000000" points="1122.6295,-699.0685 1120.8794,-694.0685 1119.1295,-699.0685 1122.6295,-699.0685"/>
</g>
<!-- foo/doop -->
<g id="node20" class="node">
<title>foo/doop</title>
<g id="a_node20"><a xlink:href="https://godoc.org/foo/doop" xlink:title="foo/doop" target="_blank">
<path fill="#afeeee" stroke="#afeeee" d="M1677.5489,-600C1677.5489,-600 1604.2099,-600 1604.2099,-600 1598.2099,-600 1592.2099,-594 1592.2099,-588 1592.2099,-588 1592.2099,-576 1592.2099,-576 1592.2099,-570 1598.2099,-564 1604.2099,-564 1604.2099,-564 1677.5489,-564 1677.5489,-564 1683.5489,-564 1689.5489,-570 1689.5489,-576 1689.5489,-576 1689.5489,-588 1689.5489,-588 1689.5489,-594 1683.5489,-600 1677.5489,-600"/>
<text text-anchor="middle" x="1640.8794" y="-577.8" font-family="Times,serif" font-size="14.00" fill="#000000">foo/doop</text>
</a>
</g>
</g>
<!-- foo&#45;&gt;foo/doop -->
<g id="edge25" class="edge">
<title>foo&#45;&gt;foo/doop</title>
<path fill="none" stroke="#000000" d="M1154.0213,-770C1270.942,-770 1657.1576,-770 1657.1576,-770 1657.1576,-770 1657.1576,-605.0262 1657.1576,-605.0262"/>
<polygon fill="#000000" stroke="#000000" points="1658.9077,-605.0262 1657.1576,-600.0262 1655.4077,-605.0263 1658.9077,-605.0262"/>
</g>
<!-- foo&#45;&gt;foo/nnns -->
<g id="edge26" class="edge">
<title>foo&#45;&gt;foo/nnns</title>
<path fill="none" stroke="#000000" d="M1153.8136,-782C1336.9144,-782 2221.3259,-782 2221.3259,-782 2221.3259,-782 2221.3259,-229.1899 2221.3259,-229.1899"/>
<polygon fill="#000000" stroke="#000000" points="2223.076,-229.1898 2221.3259,-224.1899 2219.576,-229.1899 2223.076,-229.1898"/>
</g>
<!-- pkg/lll -->
<g id="node22" class="node">
<title>pkg/lll</title>
<g id="a_node22"><a xlink:href="https://godoc.org/pkg/lll" xlink:title="pkg/lll" target="_blank">
<path fill="#afeeee" stroke="#afeeee" d="M868.4253,-600C868.4253,-600 791.3335,-600 791.3335,-600 785.3335,-600 779.3335,-594 779.3335,-588 779.3335,-588 779.3335,-576 779.3335,-576 779.3335,-570 785.3335,-564 791.3335,-564 791.3335,-564 868.4253,-564 868.4253,-564 874.4253,-564 880.4253,-570 880.4253,-576 880.4253,-576 880.4253,-588 880.4253,-588 880.4253,-594 874.4253,-600 868.4253,-600"/>
<text text-anchor="middle" x="829.8794" y="-577.8" font-family="Times,serif" font-size="14.00" fill="#000000">pkg/lll</text>
</a>
</g>
</g>
<!-- foo&#45;&gt;pkg/lll -->
<g id="edge27" class="edge">
<title>foo&#45;&gt;pkg/lll</title>
<path fill="none" stroke="#000000" d="M1088.0637,-770C1011.9598,-770 829.8794,-770 829.8794,-770 829.8794,-770 829.8794,-605.0262 829.8794,-605.0262"/>
<polygon fill="#000000" stroke="#000000" points="831.6295,-605.0262 829.8794,-600.0262 828.1295,-605.0263 831.6295,-605.0262"/>
</g>
<!-- foo/hhh&#45;&gt;pkg/jjj -->
<g id="edge37" class="edge">
<title>foo/hhh&#45;&gt;pkg/jjj</title>
<path fill="none" stroke="#000000" d="M1112.9294,-657.9478C1112.9294,-562.8142 1112.9294,-124 1112.9294,-124 1112.9294,-124 1078.953,-124 1078.953,-124"/>
<polygon fill="#000000" stroke="#000000" points="1078.953,-122.2501 1073.953,-124 1078.9529,-125.7501 1078.953,-122.2501"/>
</g>
<!-- foo/hhh&#45;&gt;foo/foopb -->
<g id="edge34" class="edge">
<title>foo/hhh&#45;&gt;foo/foopb</title>
<path fill="none" stroke="#000000" d="M1125.6837,-657.9675C1125.6837,-572.9201 1125.6837,-216 1125.6837,-216 1125.6837,-216 1800.9132,-216 1800.9132,-216"/>
<polygon fill="#000000" stroke="#000000" points="1800.9132,-217.7501 1805.9132,-216 1800.9132,-214.2501 1800.9132,-217.7501"/>
</g>
<!-- foo/hhh&#45;&gt;pkg/fff -->
<g id="edge39" class="edge">
<title>foo/hhh&#45;&gt;pkg/fff</title>
<path fill="none" stroke="#000000" d="M1068.938,-676C901.4415,-676 386.3773,-676 386.3773,-676 386.3773,-676 386.3773,-229.1366 386.3773,-229.1366"/>
<polygon fill="#000000" stroke="#000000" points="388.1274,-229.1365 386.3773,-224.1366 384.6274,-229.1366 388.1274,-229.1365"/>
</g>
<!-- foo/hhh&#45;&gt;pkg/ddd -->
<g id="edge40" class="edge">
<title>foo/hhh&#45;&gt;pkg/ddd</title>
<path fill="none" stroke="#000000" d="M1173.0553,-670C1185.2952,-670 1194.8483,-670 1194.8483,-670 1194.8483,-670 1194.8483,-417.1091 1194.8483,-417.1091"/>
<polygon fill="#000000" stroke="#000000" points="1196.5984,-417.1091 1194.8483,-412.1091 1193.0984,-417.1092 1196.5984,-417.1091"/>
</g>
<!-- foo/hhh&#45;&gt;pkg/zzz -->
<g id="edge41" class="edge">
<title>foo/hhh&#45;&gt;pkg/zzz</title>
<path fill="none" stroke="#000000" d="M1155.626,-657.8647C1155.626,-657.8647 1155.626,-323.3938 1155.626,-323.3938"/>
<polygon fill="#000000" stroke="#000000" points="1157.3761,-323.3937 1155.626,-318.3938 1153.8761,-323.3938 1157.3761,-323.3937"/>
</g>
<!-- foo/hhh&#45;&gt;pkg/ccc -->
<g id="edge38" class="edge">
<title>foo/hhh&#45;&gt;pkg/ccc</title>
<path fill="none" stroke="#000000" d="M1078.1829,-657.9306C1078.1829,-657.9306 1078.1829,-417.2838 1078.1829,-417.2838"/>
<polygon fill="#000000" stroke="#000000" points="1079.933,-417.2838 1078.1829,-412.2838 1076.433,-417.2839 1079.933,-417.2838"/>
</g>
<!-- foo/hhh&#45;&gt;foo/doop -->
<g id="edge35" class="edge">
<title>foo/hhh&#45;&gt;foo/doop</title>
<path fill="none" stroke="#000000" d="M1172.8892,-682C1301.5893,-682 1624.6012,-682 1624.6012,-682 1624.6012,-682 1624.6012,-605.3415 1624.6012,-605.3415"/>
<polygon fill="#000000" stroke="#000000" points="1626.3513,-605.3415 1624.6012,-600.3415 1622.8513,-605.3416 1626.3513,-605.3415"/>
</g>
<!-- foo/hhh&#45;&gt;pkg/lll -->
<g id="edge36" class="edge">
<title>foo/hhh&#45;&gt;pkg/lll</title>
<path fill="none" stroke="#000000" d="M1073.5638,-657.6585C1073.5638,-628.7893 1073.5638,-576 1073.5638,-576 1073.5638,-576 885.667,-576 885.667,-576"/>
<polygon fill="#000000" stroke="#000000" points="885.6671,-574.2501 880.667,-576 885.667,-577.7501 885.6671,-574.2501"/>
</g>
<!-- foo/doop&#45;&gt;foo/foopb -->
<g id="edge43" class="edge">
<title>foo/doop&#45;&gt;foo/foopb</title>
<path fill="none" stroke="#000000" d="M1689.579,-582C1751.289,-582 1849.7173,-582 1849.7173,-582 1849.7173,-582 1849.7173,-229.1353 1849.7173,-229.1353"/>
<polygon fill="#000000" stroke="#000000" points="1851.4674,-229.1352 1849.7173,-224.1353 1847.9674,-229.1353 1851.4674,-229.1352"/>
</g>
<!-- foo/doop&#45;&gt;pkg/fff -->
<g id="edge47" class="edge">
<title>foo/doop&#45;&gt;pkg/fff</title>
<path fill="none" stroke="#000000" d="M1592.0392,-576C1550.188,-576 1496.6185,-576 1496.6185,-576 1496.6185,-576 1496.6185,-202 1496.6185,-202 1496.6185,-202 415.6463,-202 415.6463,-202"/>
<polygon fill="#000000" stroke="#000000" points="415.6463,-200.2501 410.6463,-202 415.6463,-203.7501 415.6463,-200.2501"/>
</g>
<!-- foo/doop&#45;&gt;pkg/nnns -->
<g id="edge48" class="edge">
<title>foo/doop&#45;&gt;pkg/nnns</title>
<path fill="none" stroke="#000000" d="M1689.9354,-573C1738.096,-573 1804.3814,-573 1804.3814,-573 1804.3814,-573 1804.3814,-323.3362 1804.3814,-323.3362"/>
<polygon fill="#000000" stroke="#000000" points="1806.1315,-323.3362 1804.3814,-318.3362 1802.6315,-323.3362 1806.1315,-323.3362"/>
</g>
<!-- foo/doop&#45;&gt;pkg/zzz -->
<g id="edge49" class="edge">
<title>foo/doop&#45;&gt;pkg/zzz</title>
<path fill="none" stroke="#000000" d="M1591.9881,-588C1540.5657,-588 1467.0231,-588 1467.0231,-588 1467.0231,-588 1467.0231,-302 1467.0231,-302 1467.0231,-302 1212.4864,-302 1212.4864,-302"/>
<polygon fill="#000000" stroke="#000000" points="1212.4864,-300.2501 1207.4864,-302 1212.4863,-303.7501 1212.4864,-300.2501"/>
</g>
<!-- foo/doop&#45;&gt;foo/nnns -->
<g id="edge46" class="edge">
<title>foo/doop&#45;&gt;foo/nnns</title>
<path fill="none" stroke="#000000" d="M1689.8213,-591C1825.7395,-591 2197.8794,-591 2197.8794,-591 2197.8794,-591 2197.8794,-229.053 2197.8794,-229.053"/>
<polygon fill="#000000" stroke="#000000" points="2199.6295,-229.0529 2197.8794,-224.053 2196.1295,-229.053 2199.6295,-229.0529"/>
</g>
<!-- foo/data -->
<g id="node23" class="node">
<title>foo/data</title>
<g id="a_node23"><a xlink:href="https://godoc.org/foo/data" xlink:title="foo/data" target="_blank">
<path fill="#afeeee" stroke="#afeeee" d="M1995.3657,-506C1995.3657,-506 1926.3931,-506 1926.3931,-506 1920.3931,-506 1914.3931,-500 1914.3931,-494 1914.3931,-494 1914.3931,-482 1914.3931,-482 1914.3931,-476 1920.3931,-470 1926.3931,-470 1926.3931,-470 1995.3657,-470 1995.3657,-470 2001.3657,-470 2007.3657,-476 2007.3657,-482 2007.3657,-482 2007.3657,-494 2007.3657,-494 2007.3657,-500 2001.3657,-506 1995.3657,-506"/>
<text text-anchor="middle" x="1960.8794" y="-483.8" font-family="Times,serif" font-size="14.00" fill="#000000">foo/data</text>
</a>
</g>
</g>
<!-- foo/doop&#45;&gt;foo/data -->
<g id="edge42" class="edge">
<title>foo/doop&#45;&gt;foo/data</title>
<path fill="none" stroke="#000000" d="M1676.3242,-563.7663C1676.3242,-537.9906 1676.3242,-494 1676.3242,-494 1676.3242,-494 1909.2095,-494 1909.2095,-494"/>
<polygon fill="#000000" stroke="#000000" points="1909.2096,-495.7501 1914.2095,-494 1909.2095,-492.2501 1909.2096,-495.7501"/>
</g>
<!-- foo/doop/baz -->
<g id="node24" class="node">
<title>foo/doop/baz</title>
<g id="a_node24"><a xlink:href="https://godoc.org/foo/doop/baz" xlink:title="foo/doop/baz" target="_blank">
<path fill="#afeeee" stroke="#afeeee" d="M1637.7109,-506C1637.7109,-506 1538.0479,-506 1538.0479,-506 1532.0479,-506 1526.0479,-500 1526.0479,-494 1526.0479,-494 1526.0479,-482 1526.0479,-482 1526.0479,-476 1532.0479,-470 1538.0479,-470 1538.0479,-470 1637.7109,-470 1637.7109,-470 1643.7109,-470 1649.7109,-476 1649.7109,-482 1649.7109,-482 1649.7109,-494 1649.7109,-494 1649.7109,-500 1643.7109,-506 1637.7109,-506"/>
<text text-anchor="middle" x="1587.8794" y="-483.8" font-family="Times,serif" font-size="14.00" fill="#000000">foo/doop/baz</text>
</a>
</g>
</g>
<!-- foo/doop&#45;&gt;foo/doop/baz -->
<g id="edge44" class="edge">
<title>foo/doop&#45;&gt;foo/doop/baz</title>
<path fill="none" stroke="#000000" d="M1620.7949,-563.8759C1620.7949,-563.8759 1620.7949,-511.0685 1620.7949,-511.0685"/>
<polygon fill="#000000" stroke="#000000" points="1622.545,-511.0685 1620.7949,-506.0685 1619.045,-511.0685 1622.545,-511.0685"/>
</g>
<!-- foo/doop/quxx -->
<g id="node25" class="node">
<title>foo/doop/quxx</title>
<g id="a_node25"><a xlink:href="https://godoc.org/foo/doop/quxx" xlink:title="foo/doop/quxx" target="_blank">
<path fill="#afeeee" stroke="#afeeee" d="M1699.6521,-412C1699.6521,-412 1602.1067,-412 1602.1067,-412 1596.1067,-412 1590.1067,-406 1590.1067,-400 1590.1067,-400 1590.1067,-388 1590.1067,-388 1590.1067,-382 1596.1067,-376 1602.1067,-376 1602.1067,-376 1699.6521,-376 1699.6521,-376 1705.6521,-376 1711.6521,-382 1711.6521,-388 1711.6521,-388 1711.6521,-400 1711.6521,-400 1711.6521,-406 1705.6521,-412 1699.6521,-412"/>
<text text-anchor="middle" x="1650.8794" y="-389.8" font-family="Times,serif" font-size="14.00" fill="#000000">foo/doop/quxx</text>
</a>
</g>
</g>
<!-- foo/doop&#45;&gt;foo/doop/quxx -->
<g id="edge45" class="edge">
<title>foo/doop&#45;&gt;foo/doop/quxx</title>
<path fill="none" stroke="#000000" d="M1662.9346,-563.9738C1662.9346,-563.9738 1662.9346,-417.2479 1662.9346,-417.2479"/>
<polygon fill="#000000" stroke="#000000" points="1664.6847,-417.2479 1662.9346,-412.2479 1661.1847,-417.2479 1664.6847,-417.2479"/>
</g>
<!-- pkg/lll&#45;&gt;pkg/fff -->
<g id="edge59" class="edge">
<title>pkg/lll&#45;&gt;pkg/fff</title>
<path fill="none" stroke="#000000" d="M779.076,-582C664.21,-582 394.4332,-582 394.4332,-582 394.4332,-582 394.4332,-229.1353 394.4332,-229.1353"/>
<polygon fill="#000000" stroke="#000000" points="396.1833,-229.1352 394.4332,-224.1353 392.6833,-229.1353 396.1833,-229.1352"/>
</g>
<!-- foo/doop/baz&#45;&gt;pkg/fff -->
<g id="edge51" class="edge">
<title>foo/doop/baz&#45;&gt;pkg/fff</title>
<path fill="none" stroke="#000000" d="M1568.7334,-469.8592C1568.7334,-406.3711 1568.7334,-198 1568.7334,-198 1568.7334,-198 415.7998,-198 415.7998,-198"/>
<polygon fill="#000000" stroke="#000000" points="415.7999,-196.2501 410.7998,-198 415.7998,-199.7501 415.7999,-196.2501"/>
</g>
<!-- foo/doop/baz&#45;&gt;pkg/nnns -->
<g id="edge52" class="edge">
<title>foo/doop/baz&#45;&gt;pkg/nnns</title>
<path fill="none" stroke="#000000" d="M1649.7652,-482C1709.6362,-482 1791.3801,-482 1791.3801,-482 1791.3801,-482 1791.3801,-323.1162 1791.3801,-323.1162"/>
<polygon fill="#000000" stroke="#000000" points="1793.1302,-323.1162 1791.3801,-318.1162 1789.6302,-323.1163 1793.1302,-323.1162"/>
</g>
<!-- foo/doop/baz&#45;&gt;pkg/zzz -->
<g id="edge53" class="edge">
<title>foo/doop/baz&#45;&gt;pkg/zzz</title>
<path fill="none" stroke="#000000" d="M1547.4736,-469.6861C1547.4736,-421.8804 1547.4736,-297 1547.4736,-297 1547.4736,-297 1212.4489,-297 1212.4489,-297"/>
<polygon fill="#000000" stroke="#000000" points="1212.4489,-295.2501 1207.4489,-297 1212.4488,-298.7501 1212.4489,-295.2501"/>
</g>
<!-- foo/doop/baz&#45;&gt;foo/doop/quxx -->
<g id="edge50" class="edge">
<title>foo/doop/baz&#45;&gt;foo/doop/quxx</title>
<path fill="none" stroke="#000000" d="M1619.769,-469.8759C1619.769,-469.8759 1619.769,-417.0685 1619.769,-417.0685"/>
<polygon fill="#000000" stroke="#000000" points="1621.5191,-417.0685 1619.769,-412.0685 1618.0191,-417.0685 1621.5191,-417.0685"/>
</g>
<!-- foo/doop/quxx&#45;&gt;pkg/fff -->
<g id="edge54" class="edge">
<title>foo/doop/quxx&#45;&gt;pkg/fff</title>
<path fill="none" stroke="#000000" d="M1671.1748,-375.9891C1671.1748,-327.0034 1671.1748,-195 1671.1748,-195 1671.1748,-195 415.6119,-195 415.6119,-195"/>
<polygon fill="#000000" stroke="#000000" points="415.612,-193.2501 410.6119,-195 415.6119,-196.7501 415.612,-193.2501"/>
</g>
<!-- foo/doop/quxx&#45;&gt;pkg/nnns -->
<g id="edge55" class="edge">
<title>foo/doop/quxx&#45;&gt;pkg/nnns</title>
<path fill="none" stroke="#000000" d="M1711.816,-394C1739.1599,-394 1765.3773,-394 1765.3773,-394 1765.3773,-394 1765.3773,-323.1241 1765.3773,-323.1241"/>
<polygon fill="#000000" stroke="#000000" points="1767.1274,-323.1241 1765.3773,-318.1241 1763.6274,-323.1242 1767.1274,-323.1241"/>
</g>
<!-- foo/doop/quxx&#45;&gt;pkg/zzz -->
<g id="edge56" class="edge">
<title>foo/doop/quxx&#45;&gt;pkg/zzz</title>
<path fill="none" stroke="#000000" d="M1630.584,-375.7644C1630.584,-346.4256 1630.584,-292 1630.584,-292 1630.584,-292 1212.2816,-292 1212.2816,-292"/>
<polygon fill="#000000" stroke="#000000" points="1212.2817,-290.2501 1207.2816,-292 1212.2816,-293.7501 1212.2817,-290.2501"/>
</g>
</g>
<style type="text/css">
.node path {
    fill: #afeeee;
    stroke: #afeeee;
}
.node.selected path {
    fill: red;
    stroke: red;
}
.node.selected-in path {
    stroke: green;
}
.node.selected-out path {
    stroke: red;
}

.edge path {
    stroke: black;
}
.edge.selected-in path {
    stroke: green;
}
.edge.selected-out path {
    stroke: red;
}
</style>
<script type="text/javascript"><![CDATA[
    function addListenersToNodes() {
        const nodes = document.querySelectorAll(".node");
        nodes.forEach(node => {
            node.addEventListener("mouseenter", evt => {
                const name = node.querySelector("title").innerHTML;
                updateSelection(name, node);
            });
            node.addEventListener("mouseleave", evt => {
                reset();
            });
        });
    }

    function addEdge(obj, from, to, node) {
        let edges = obj[from];
        if (!edges) {
            edges = [];
            obj[from] = edges;
        }
        edges.push({
            node,
            to,
            from,
        });
    }

    function edgesAndNodesByName() {
        const outEdges = {}; // node name (string) => [edge DOM node]
        const inEdges = {}; // node name (string) => [edge DOM node]
        const edgeNodes = document.querySelectorAll(".edge");
        edgeNodes.forEach(edge => {
            const title = edge.querySelector("title").innerHTML;
            const [from, to] = title.split("-&gt;");
            addEdge(outEdges, from, to, edge);
            addEdge(inEdges, to, from, edge);
        });
        const nodeNodes = document.querySelectorAll(".node");
        const nodes = {}; // node name => node DOM nodee
        nodeNodes.forEach(node => {
            const title = node.querySelector("title").innerHTML;
            nodes[title] = node;
        });
        return { nodes, outEdges, inEdges };
    }

    let selectedNode = null;
    let depNodes = [];
    let selectedEdges = [];

    function reset() {
        if (selectedNode) {
            selectedNode.classList.remove("selected");
        }
        selectedEdges.forEach(edge => {
            edge.classList.remove("selected-in");
            edge.classList.remove("selected-out");
        });
        selectedEdges = [];
        depNodes.forEach(node => {
            node.classList.remove("selected-in");
            node.classList.remove("selected-out");
        });
        depNodes = [];
    }

    function updateSelection(name, node) {
        reset();

        node.classList.add("selected");
        selectedNode = node;

        // highlight edges
        const outFromThis = outEdges[name] || [];
        outFromThis.forEach(outEdge => {
            outEdge.node.classList.add("selected-out");
            selectedEdges.push(outEdge.node);
            const node = nodes[outEdge.to];
            node.classList.add("selected-out");
            depNodes.push(node);
        });
        const inToThis = inEdges[name] || [];
        inToThis.forEach(inEdge => {
            inEdge.node.classList.add("selected-in");
            selectedEdges.push(inEdge.node);
            const node = nodes[inEdge.to];
            node.classList.add("selected-in");
            depNodes.push(node);
        });

        console.log(
            "selected:", name,
            "out edges:", outFromThis.map(n => n.to),
            "in edges:", inToThis.map(n => n.to),
        );
    }

    const { nodes, outEdges, inEdges } = edgesAndNodesByName();
    addListenersToNodes();
]]></script>
</svg>
